{
  "accessors": [
    {
      "name": "Body_MC003_Kozakura_Mari_face-Mesh_0_positions",
      "componentType": 5126,
      "count": 7145,
      "min": [
        -0.9436240196228027,
        0.0011940000113099813,
        -1.1618870496749878
      ],
      "max": [
        0.9433760046958923,
        3.4071850776672363,
        0.7083500027656555
      ],
      "type": "VEC3",
      "bufferView": 0,
      "byteOffset": 0
    },
    {
      "name": "Body_MC003_Kozakura_Mari_face-Mesh_0_normals",
      "componentType": 5126,
      "count": 7145,
      "min": [
        -0.9999755620956421,
        -1,
        -0.9999885559082031
      ],
      "max": [
        0.9999755620956421,
        0.9999144077301025,
        0.9999740719795227
      ],
      "type": "VEC3",
      "bufferView": 1,
      "byteOffset": 0
    },
    {
      "name": "Body_MC003_Kozakura_Mari_face-Mesh_0_texcoords",
      "componentType": 5126,
      "count": 7145,
      "min": [
        0.00419399980455637,
        0.003220000071451068
      ],
      "max": [
        0.9959200024604797,
        0.989853024482727
      ],
      "type": "VEC2",
      "bufferView": 2,
      "byteOffset": 0
    },
    {
      "name": "Body_MC003_Kozakura_Mari_face-Mesh_0_indices",
      "componentType": 5123,
      "count": 29712,
      "min": [
        0
      ],
      "max": [
        7144
      ],
      "type": "SCALAR",
      "bufferView": 3,
      "byteOffset": 0
    },
    {
      "name": "Body_MC003_Kozakura_Mari_face-Mesh_1_positions",
      "componentType": 5126,
      "count": 760,
      "min": [
        -0.1582069993019104,
        1.702010989189148,
        0.30840998888015747
      ],
      "max": [
        0.14649200439453125,
        1.8854509592056274,
        0.4377560019493103
      ],
      "type": "VEC3",
      "bufferView": 0,
      "byteOffset": 85740
    },
    {
      "name": "Body_MC003_Kozakura_Mari_face-Mesh_1_normals",
      "componentType": 5126,
      "count": 760,
      "min": [
        -0.27090343832969666,
        -0.06430044025182724,
        -0.4466020166873932
      ],
      "max": [
        0.17679759860038757,
        0.9851647019386292,
        0.99970942735672
      ],
      "type": "VEC3",
      "bufferView": 1,
      "byteOffset": 85740
    },
    {
      "name": "Body_MC003_Kozakura_Mari_face-Mesh_1_texcoords",
      "componentType": 5126,
      "count": 760,
      "min": [
        0,
        1
      ],
      "max": [
        1,
        1
      ],
      "type": "VEC2",
      "bufferView": 2,
      "byteOffset": 57160
    },
    {
      "name": "Body_MC003_Kozakura_Mari_face-Mesh_1_indices",
      "componentType": 5123,
      "count": 810,
      "min": [
        0
      ],
      "max": [
        759
      ],
      "type": "SCALAR",
      "bufferView": 3,
      "byteOffset": 59424
    }
  ],
  "asset": {
    "generator": "obj2gltf",
    "version": "2.0"
  },
  "buffers": [
    {
      "name": "mary",
      "byteLength": 314004,
      "uri": "data:application/octet-stream;base64,"
    }
  ],
  "bufferViews": [
    {
      "name": "bufferView_0",
      "buffer": 0,
      "byteLength": 94860,
      "byteOffset": 0,
      "byteStride": 12,
      "target": 34962
    },
    {
      "name": "bufferView_1",
      "buffer": 0,
      "byteLength": 94860,
      "byteOffset": 94860,
      "byteStride": 12,
      "target": 34962
    },
    {
      "name": "bufferView_2",
      "buffer": 0,
      "byteLength": 63240,
      "byteOffset": 189720,
      "byteStride": 8,
      "target": 34962
    },
    {
      "name": "bufferView_3",
      "buffer": 0,
      "byteLength": 61044,
      "byteOffset": 252960,
      "target": 34963
    }
  ],
  "materials": [
    {
      "name": "MC003_Kozakura_Mari",
      "pbrMetallicRoughness": {
        "baseColorFactor": [
          0.5,
          0.5,
          0.5,
          1
        ],
        "metallicFactor": 0,
        "roughnessFactor": 1
      },
      "emissiveFactor": [
        0,
        0,
        0
      ],
      "alphaMode": "OPAQUE",
      "doubleSided": false
    },
    {
      "name": "",
      "pbrMetallicRoughness": {
        "baseColorFactor": [
          0.5,
          0.5,
          0.5,
          1
        ],
        "metallicFactor": 0,
        "roughnessFactor": 1
      },
      "emissiveFactor": [
        0,
        0,
        0
      ],
      "alphaMode": "OPAQUE",
      "doubleSided": false
    }
  ],
  "meshes": [
    {
      "name": "Body_MC003_Kozakura_Mari_face-Mesh",
      "primitives": [
        {
          "attributes": {
            "POSITION": 0,
            "NORMAL": 1,
            "TEXCOORD_0": 2
          },
          "indices": 3,
          "material": 0,
          "mode": 4
        },
        {
          "attributes": {
            "POSITION": 4,
            "NORMAL": 5,
            "TEXCOORD_0": 6
          },
          "indices": 7,
          "material": 1,
          "mode": 4
        }
      ]
    }
  ],
  "nodes": [
    {
      "name": "Body_MC003_Kozakura_Mari_face",
      "mesh": 0
    }
  ],
  "scene": 0,
  "scenes": [
    {
      "nodes": [
        0
      ]
    }
  ]
}
